<mxfile host="app.diagrams.net" agent="Mozilla/5.0 (Windows NT 10.0; Win64; x64) AppleWebKit/537.36 (KHTML, like Gecko) Chrome/131.0.0.0 Safari/537.36 Edg/131.0.0.0" version="25.0.3">
  <diagram name="Page-1" id="ufvWHhQzr9V4Tbut3hgt">
    <mxGraphModel dx="655" dy="381" grid="1" gridSize="10" guides="1" tooltips="1" connect="1" arrows="1" fold="1" page="1" pageScale="1" pageWidth="850" pageHeight="1100" math="0" shadow="0">
      <root>
        <mxCell id="0" />
        <mxCell id="1" parent="0" />
        <mxCell id="CkjWmIWp2lJgYky-ul7p-18" style="edgeStyle=orthogonalEdgeStyle;rounded=0;orthogonalLoop=1;jettySize=auto;html=1;entryX=0;entryY=0.5;entryDx=0;entryDy=0;curved=1;" edge="1" parent="1" source="CkjWmIWp2lJgYky-ul7p-1" target="CkjWmIWp2lJgYky-ul7p-3">
          <mxGeometry relative="1" as="geometry" />
        </mxCell>
        <mxCell id="CkjWmIWp2lJgYky-ul7p-20" style="edgeStyle=orthogonalEdgeStyle;rounded=0;orthogonalLoop=1;jettySize=auto;html=1;entryX=0;entryY=0.5;entryDx=0;entryDy=0;curved=1;" edge="1" parent="1" source="CkjWmIWp2lJgYky-ul7p-1" target="CkjWmIWp2lJgYky-ul7p-4">
          <mxGeometry relative="1" as="geometry" />
        </mxCell>
        <mxCell id="CkjWmIWp2lJgYky-ul7p-21" style="edgeStyle=orthogonalEdgeStyle;rounded=0;orthogonalLoop=1;jettySize=auto;html=1;entryX=0;entryY=0.5;entryDx=0;entryDy=0;curved=1;" edge="1" parent="1" source="CkjWmIWp2lJgYky-ul7p-1" target="CkjWmIWp2lJgYky-ul7p-5">
          <mxGeometry relative="1" as="geometry" />
        </mxCell>
        <mxCell id="CkjWmIWp2lJgYky-ul7p-22" style="edgeStyle=orthogonalEdgeStyle;rounded=0;orthogonalLoop=1;jettySize=auto;html=1;entryX=0;entryY=0.5;entryDx=0;entryDy=0;curved=1;" edge="1" parent="1" source="CkjWmIWp2lJgYky-ul7p-1" target="CkjWmIWp2lJgYky-ul7p-6">
          <mxGeometry relative="1" as="geometry" />
        </mxCell>
        <mxCell id="CkjWmIWp2lJgYky-ul7p-23" style="edgeStyle=orthogonalEdgeStyle;rounded=0;orthogonalLoop=1;jettySize=auto;html=1;entryX=0;entryY=0.5;entryDx=0;entryDy=0;curved=1;" edge="1" parent="1" source="CkjWmIWp2lJgYky-ul7p-1" target="CkjWmIWp2lJgYky-ul7p-7">
          <mxGeometry relative="1" as="geometry" />
        </mxCell>
        <mxCell id="CkjWmIWp2lJgYky-ul7p-24" style="edgeStyle=orthogonalEdgeStyle;rounded=0;orthogonalLoop=1;jettySize=auto;html=1;entryX=0;entryY=0.5;entryDx=0;entryDy=0;curved=1;" edge="1" parent="1" source="CkjWmIWp2lJgYky-ul7p-1" target="CkjWmIWp2lJgYky-ul7p-8">
          <mxGeometry relative="1" as="geometry" />
        </mxCell>
        <mxCell id="CkjWmIWp2lJgYky-ul7p-1" value="&lt;div&gt;Потребител&lt;/div&gt;" style="shape=umlActor;verticalLabelPosition=bottom;verticalAlign=top;html=1;outlineConnect=0;" vertex="1" parent="1">
          <mxGeometry x="150" y="200" width="30" height="60" as="geometry" />
        </mxCell>
        <mxCell id="CkjWmIWp2lJgYky-ul7p-3" value="Вход" style="ellipse;whiteSpace=wrap;html=1;" vertex="1" parent="1">
          <mxGeometry x="200" y="80" width="120" height="40" as="geometry" />
        </mxCell>
        <mxCell id="CkjWmIWp2lJgYky-ul7p-59" style="edgeStyle=orthogonalEdgeStyle;rounded=0;orthogonalLoop=1;jettySize=auto;html=1;entryX=0;entryY=0.5;entryDx=0;entryDy=0;curved=1;dashed=1;fillColor=#0050ef;strokeColor=#001DBC;" edge="1" parent="1" source="CkjWmIWp2lJgYky-ul7p-4" target="CkjWmIWp2lJgYky-ul7p-55">
          <mxGeometry relative="1" as="geometry" />
        </mxCell>
        <mxCell id="CkjWmIWp2lJgYky-ul7p-4" value="Панел за статистики" style="ellipse;whiteSpace=wrap;html=1;" vertex="1" parent="1">
          <mxGeometry x="270" y="130" width="120" height="40" as="geometry" />
        </mxCell>
        <mxCell id="CkjWmIWp2lJgYky-ul7p-44" style="edgeStyle=orthogonalEdgeStyle;rounded=0;orthogonalLoop=1;jettySize=auto;html=1;curved=1;startArrow=none;startFill=0;entryX=0;entryY=0.5;entryDx=0;entryDy=0;dashed=1;fillColor=#008a00;strokeColor=#005700;" edge="1" parent="1" source="CkjWmIWp2lJgYky-ul7p-5" target="CkjWmIWp2lJgYky-ul7p-36">
          <mxGeometry relative="1" as="geometry">
            <Array as="points">
              <mxPoint x="410" y="200" />
              <mxPoint x="410" y="150" />
            </Array>
          </mxGeometry>
        </mxCell>
        <mxCell id="CkjWmIWp2lJgYky-ul7p-60" style="edgeStyle=orthogonalEdgeStyle;rounded=0;orthogonalLoop=1;jettySize=auto;html=1;entryX=0;entryY=0.5;entryDx=0;entryDy=0;curved=1;dashed=1;fillColor=#0050ef;strokeColor=#001DBC;" edge="1" parent="1" source="CkjWmIWp2lJgYky-ul7p-5" target="CkjWmIWp2lJgYky-ul7p-55">
          <mxGeometry relative="1" as="geometry" />
        </mxCell>
        <mxCell id="CkjWmIWp2lJgYky-ul7p-66" style="edgeStyle=orthogonalEdgeStyle;rounded=0;orthogonalLoop=1;jettySize=auto;html=1;entryX=0;entryY=0.5;entryDx=0;entryDy=0;exitX=1;exitY=0.5;exitDx=0;exitDy=0;curved=1;dashed=1;fillColor=#a20025;strokeColor=#6F0000;" edge="1" parent="1" source="CkjWmIWp2lJgYky-ul7p-5" target="CkjWmIWp2lJgYky-ul7p-51">
          <mxGeometry relative="1" as="geometry" />
        </mxCell>
        <mxCell id="CkjWmIWp2lJgYky-ul7p-5" value="Панел за електроенергия" style="ellipse;whiteSpace=wrap;html=1;" vertex="1" parent="1">
          <mxGeometry x="270" y="180" width="120" height="40" as="geometry" />
        </mxCell>
        <mxCell id="CkjWmIWp2lJgYky-ul7p-45" style="edgeStyle=orthogonalEdgeStyle;rounded=0;orthogonalLoop=1;jettySize=auto;html=1;entryX=0;entryY=0.5;entryDx=0;entryDy=0;curved=1;startArrow=none;startFill=0;dashed=1;fillColor=#008a00;strokeColor=#005700;" edge="1" parent="1" source="CkjWmIWp2lJgYky-ul7p-6" target="CkjWmIWp2lJgYky-ul7p-36">
          <mxGeometry relative="1" as="geometry">
            <Array as="points">
              <mxPoint x="410" y="250" />
              <mxPoint x="410" y="150" />
            </Array>
          </mxGeometry>
        </mxCell>
        <mxCell id="CkjWmIWp2lJgYky-ul7p-61" style="edgeStyle=orthogonalEdgeStyle;rounded=0;orthogonalLoop=1;jettySize=auto;html=1;entryX=0;entryY=0.5;entryDx=0;entryDy=0;curved=1;dashed=1;fillColor=#0050ef;strokeColor=#001DBC;" edge="1" parent="1" source="CkjWmIWp2lJgYky-ul7p-6" target="CkjWmIWp2lJgYky-ul7p-55">
          <mxGeometry relative="1" as="geometry" />
        </mxCell>
        <mxCell id="CkjWmIWp2lJgYky-ul7p-67" style="edgeStyle=orthogonalEdgeStyle;rounded=0;orthogonalLoop=1;jettySize=auto;html=1;entryX=0;entryY=0.5;entryDx=0;entryDy=0;exitX=1;exitY=0.5;exitDx=0;exitDy=0;curved=1;dashed=1;fillColor=#a20025;strokeColor=#6F0000;" edge="1" parent="1" source="CkjWmIWp2lJgYky-ul7p-6" target="CkjWmIWp2lJgYky-ul7p-51">
          <mxGeometry relative="1" as="geometry" />
        </mxCell>
        <mxCell id="CkjWmIWp2lJgYky-ul7p-6" value="Панел за продукция" style="ellipse;whiteSpace=wrap;html=1;" vertex="1" parent="1">
          <mxGeometry x="270" y="230" width="120" height="40" as="geometry" />
        </mxCell>
        <mxCell id="CkjWmIWp2lJgYky-ul7p-46" style="edgeStyle=orthogonalEdgeStyle;rounded=0;orthogonalLoop=1;jettySize=auto;html=1;entryX=0;entryY=0.5;entryDx=0;entryDy=0;curved=1;startArrow=none;startFill=0;dashed=1;fillColor=#008a00;strokeColor=#005700;" edge="1" parent="1" source="CkjWmIWp2lJgYky-ul7p-7" target="CkjWmIWp2lJgYky-ul7p-36">
          <mxGeometry relative="1" as="geometry">
            <Array as="points">
              <mxPoint x="410" y="300" />
              <mxPoint x="410" y="150" />
            </Array>
          </mxGeometry>
        </mxCell>
        <mxCell id="CkjWmIWp2lJgYky-ul7p-68" style="edgeStyle=orthogonalEdgeStyle;rounded=0;orthogonalLoop=1;jettySize=auto;html=1;entryX=0;entryY=0.5;entryDx=0;entryDy=0;exitX=1;exitY=0.5;exitDx=0;exitDy=0;curved=1;dashed=1;fillColor=#a20025;strokeColor=#6F0000;" edge="1" parent="1" source="CkjWmIWp2lJgYky-ul7p-7" target="CkjWmIWp2lJgYky-ul7p-51">
          <mxGeometry relative="1" as="geometry" />
        </mxCell>
        <mxCell id="CkjWmIWp2lJgYky-ul7p-7" value="Панел за вода" style="ellipse;whiteSpace=wrap;html=1;" vertex="1" parent="1">
          <mxGeometry x="260" y="280" width="120" height="40" as="geometry" />
        </mxCell>
        <mxCell id="CkjWmIWp2lJgYky-ul7p-69" style="edgeStyle=orthogonalEdgeStyle;rounded=0;orthogonalLoop=1;jettySize=auto;html=1;exitX=1;exitY=0.5;exitDx=0;exitDy=0;entryX=0;entryY=0.5;entryDx=0;entryDy=0;curved=1;dashed=1;fillColor=#a20025;strokeColor=#6F0000;" edge="1" parent="1" source="CkjWmIWp2lJgYky-ul7p-8" target="CkjWmIWp2lJgYky-ul7p-51">
          <mxGeometry relative="1" as="geometry">
            <mxPoint x="470" y="300" as="targetPoint" />
          </mxGeometry>
        </mxCell>
        <mxCell id="CkjWmIWp2lJgYky-ul7p-8" value="Панел за газ" style="ellipse;whiteSpace=wrap;html=1;" vertex="1" parent="1">
          <mxGeometry x="240" y="330" width="120" height="40" as="geometry" />
        </mxCell>
        <mxCell id="CkjWmIWp2lJgYky-ul7p-37" style="edgeStyle=orthogonalEdgeStyle;rounded=0;orthogonalLoop=1;jettySize=auto;html=1;curved=1;dashed=1;entryX=0;entryY=0;entryDx=0;entryDy=0;" edge="1" parent="1" source="CkjWmIWp2lJgYky-ul7p-13" target="CkjWmIWp2lJgYky-ul7p-36">
          <mxGeometry relative="1" as="geometry" />
        </mxCell>
        <mxCell id="CkjWmIWp2lJgYky-ul7p-13" value="Създаване" style="ellipse;whiteSpace=wrap;html=1;" vertex="1" parent="1">
          <mxGeometry x="340" y="60" width="120" height="40" as="geometry" />
        </mxCell>
        <mxCell id="CkjWmIWp2lJgYky-ul7p-38" style="edgeStyle=orthogonalEdgeStyle;rounded=0;orthogonalLoop=1;jettySize=auto;html=1;entryX=0.44;entryY=-0.032;entryDx=0;entryDy=0;curved=1;dashed=1;entryPerimeter=0;" edge="1" parent="1" source="CkjWmIWp2lJgYky-ul7p-14" target="CkjWmIWp2lJgYky-ul7p-36">
          <mxGeometry relative="1" as="geometry" />
        </mxCell>
        <mxCell id="CkjWmIWp2lJgYky-ul7p-14" value="Промяна" style="ellipse;whiteSpace=wrap;html=1;" vertex="1" parent="1">
          <mxGeometry x="410" y="10" width="120" height="40" as="geometry" />
        </mxCell>
        <mxCell id="CkjWmIWp2lJgYky-ul7p-39" style="edgeStyle=orthogonalEdgeStyle;rounded=0;orthogonalLoop=1;jettySize=auto;html=1;entryX=0.708;entryY=-0.004;entryDx=0;entryDy=0;curved=1;dashed=1;entryPerimeter=0;" edge="1" parent="1" source="CkjWmIWp2lJgYky-ul7p-15" target="CkjWmIWp2lJgYky-ul7p-36">
          <mxGeometry relative="1" as="geometry">
            <Array as="points">
              <mxPoint x="520" y="110" />
              <mxPoint x="510" y="110" />
            </Array>
          </mxGeometry>
        </mxCell>
        <mxCell id="CkjWmIWp2lJgYky-ul7p-15" value="Справки" style="ellipse;whiteSpace=wrap;html=1;" vertex="1" parent="1">
          <mxGeometry x="490" y="50" width="120" height="40" as="geometry" />
        </mxCell>
        <mxCell id="CkjWmIWp2lJgYky-ul7p-40" style="edgeStyle=orthogonalEdgeStyle;rounded=0;orthogonalLoop=1;jettySize=auto;html=1;entryX=1;entryY=0;entryDx=0;entryDy=0;curved=1;dashed=1;" edge="1" parent="1" target="CkjWmIWp2lJgYky-ul7p-36">
          <mxGeometry relative="1" as="geometry">
            <mxPoint x="570" y="100" as="sourcePoint" />
            <Array as="points">
              <mxPoint x="563" y="136" />
            </Array>
          </mxGeometry>
        </mxCell>
        <mxCell id="CkjWmIWp2lJgYky-ul7p-16" value="Изтриване на обект" style="ellipse;whiteSpace=wrap;html=1;" vertex="1" parent="1">
          <mxGeometry x="545" y="90" width="120" height="40" as="geometry" />
        </mxCell>
        <mxCell id="CkjWmIWp2lJgYky-ul7p-41" style="edgeStyle=orthogonalEdgeStyle;rounded=0;orthogonalLoop=1;jettySize=auto;html=1;entryX=1;entryY=0.5;entryDx=0;entryDy=0;curved=1;dashed=1;" edge="1" parent="1" source="CkjWmIWp2lJgYky-ul7p-17" target="CkjWmIWp2lJgYky-ul7p-36">
          <mxGeometry relative="1" as="geometry" />
        </mxCell>
        <mxCell id="CkjWmIWp2lJgYky-ul7p-17" value="Изтриване на данни" style="ellipse;whiteSpace=wrap;html=1;" vertex="1" parent="1">
          <mxGeometry x="580" y="130" width="120" height="40" as="geometry" />
        </mxCell>
        <mxCell id="CkjWmIWp2lJgYky-ul7p-36" value="Базова фунционалност" style="ellipse;whiteSpace=wrap;html=1;" vertex="1" parent="1">
          <mxGeometry x="425" y="130" width="120" height="40" as="geometry" />
        </mxCell>
        <mxCell id="CkjWmIWp2lJgYky-ul7p-43" style="edgeStyle=orthogonalEdgeStyle;rounded=0;orthogonalLoop=1;jettySize=auto;html=1;entryX=0;entryY=0.5;entryDx=0;entryDy=0;curved=1;startArrow=none;startFill=0;dashed=1;fillColor=#008a00;strokeColor=#005700;" edge="1" parent="1" source="CkjWmIWp2lJgYky-ul7p-4" target="CkjWmIWp2lJgYky-ul7p-36">
          <mxGeometry relative="1" as="geometry" />
        </mxCell>
        <mxCell id="CkjWmIWp2lJgYky-ul7p-47" style="edgeStyle=orthogonalEdgeStyle;rounded=0;orthogonalLoop=1;jettySize=auto;html=1;entryX=0;entryY=0.5;entryDx=0;entryDy=0;curved=1;startArrow=none;startFill=0;dashed=1;fillColor=#008a00;strokeColor=#005700;" edge="1" parent="1" source="CkjWmIWp2lJgYky-ul7p-8" target="CkjWmIWp2lJgYky-ul7p-36">
          <mxGeometry relative="1" as="geometry">
            <Array as="points">
              <mxPoint x="410" y="350" />
              <mxPoint x="410" y="150" />
            </Array>
          </mxGeometry>
        </mxCell>
        <mxCell id="CkjWmIWp2lJgYky-ul7p-56" style="edgeStyle=orthogonalEdgeStyle;rounded=0;orthogonalLoop=1;jettySize=auto;html=1;entryX=1;entryY=0.5;entryDx=0;entryDy=0;dashed=1;curved=1;exitX=0;exitY=0.5;exitDx=0;exitDy=0;" edge="1" parent="1" source="CkjWmIWp2lJgYky-ul7p-49" target="CkjWmIWp2lJgYky-ul7p-55">
          <mxGeometry relative="1" as="geometry">
            <Array as="points">
              <mxPoint x="620" y="210" />
            </Array>
          </mxGeometry>
        </mxCell>
        <mxCell id="CkjWmIWp2lJgYky-ul7p-49" value="Графика за месечен отчет" style="ellipse;whiteSpace=wrap;html=1;" vertex="1" parent="1">
          <mxGeometry x="620" y="170" width="150" height="40" as="geometry" />
        </mxCell>
        <mxCell id="CkjWmIWp2lJgYky-ul7p-57" style="edgeStyle=orthogonalEdgeStyle;rounded=0;orthogonalLoop=1;jettySize=auto;html=1;entryX=1;entryY=0.5;entryDx=0;entryDy=0;dashed=1;curved=1;" edge="1" parent="1" source="CkjWmIWp2lJgYky-ul7p-50" target="CkjWmIWp2lJgYky-ul7p-55">
          <mxGeometry relative="1" as="geometry" />
        </mxCell>
        <mxCell id="CkjWmIWp2lJgYky-ul7p-50" value="Графика за Годишни разходи" style="ellipse;whiteSpace=wrap;html=1;" vertex="1" parent="1">
          <mxGeometry x="620" y="220" width="160" height="40" as="geometry" />
        </mxCell>
        <mxCell id="CkjWmIWp2lJgYky-ul7p-51" value="Последно въвеждани данни" style="ellipse;whiteSpace=wrap;html=1;" vertex="1" parent="1">
          <mxGeometry x="480" y="280" width="160" height="40" as="geometry" />
        </mxCell>
        <mxCell id="CkjWmIWp2lJgYky-ul7p-55" value="Базови графики" style="ellipse;whiteSpace=wrap;html=1;" vertex="1" parent="1">
          <mxGeometry x="460" y="190" width="120" height="40" as="geometry" />
        </mxCell>
      </root>
    </mxGraphModel>
  </diagram>
</mxfile>
